<?xml version="1.0" standalone="no"?><svg xmlns="http://www.w3.org/2000/svg" viewBox="0 0 1440 320"><path fill="#e7008a" fill-opacity="1" d="M0,160L12,144C24,128,48,96,72,69.3C96,43,120,21,144,53.3C168,85,192,171,216,192C240,213,264,171,288,160C312,149,336,171,360,186.7C384,203,408,213,432,213.3C456,213,480,203,504,197.3C528,192,552,192,576,186.7C600,181,624,171,648,149.3C672,128,696,96,720,112C744,128,768,192,792,208C816,224,840,192,864,154.7C888,117,912,75,936,101.3C960,128,984,224,1008,245.3C1032,267,1056,213,1080,192C1104,171,1128,181,1152,181.3C1176,181,1200,171,1224,160C1248,149,1272,139,1296,128C1320,117,1344,107,1368,117.3C1392,128,1416,160,1428,176L1440,192L1440,0L1428,0C1416,0,1392,0,1368,0C1344,0,1320,0,1296,0C1272,0,1248,0,1224,0C1200,0,1176,0,1152,0C1128,0,1104,0,1080,0C1056,0,1032,0,1008,0C984,0,960,0,936,0C912,0,888,0,864,0C840,0,816,0,792,0C768,0,744,0,720,0C696,0,672,0,648,0C624,0,600,0,576,0C552,0,528,0,504,0C480,0,456,0,432,0C408,0,384,0,360,0C336,0,312,0,288,0C264,0,240,0,216,0C192,0,168,0,144,0C120,0,96,0,72,0C48,0,24,0,12,0L0,0Z"></path></svg>