<?xml version="1.0" standalone="no"?><svg xmlns="http://www.w3.org/2000/svg" viewBox="0 0 1440 320"><path fill="#000b76" fill-opacity="1" d="M0,224L16,192C32,160,64,96,96,85.3C128,75,160,117,192,122.7C224,128,256,96,288,69.3C320,43,352,21,384,32C416,43,448,85,480,96C512,107,544,85,576,96C608,107,640,149,672,160C704,171,736,149,768,165.3C800,181,832,235,864,240C896,245,928,203,960,181.3C992,160,1024,160,1056,144C1088,128,1120,96,1152,96C1184,96,1216,128,1248,144C1280,160,1312,160,1344,176C1376,192,1408,224,1424,240L1440,256L1440,320L1424,320C1408,320,1376,320,1344,320C1312,320,1280,320,1248,320C1216,320,1184,320,1152,320C1120,320,1088,320,1056,320C1024,320,992,320,960,320C928,320,896,320,864,320C832,320,800,320,768,320C736,320,704,320,672,320C640,320,608,320,576,320C544,320,512,320,480,320C448,320,416,320,384,320C352,320,320,320,288,320C256,320,224,320,192,320C160,320,128,320,96,320C64,320,32,320,16,320L0,320Z"></path></svg>